<svg width="800" height="923" viewBox="0 0 800 923" fill="none" xmlns="http://www.w3.org/2000/svg">
<g opacity="0.8">
<path d="M406.338 49.6289C410.087 72.667 414.448 96.1108 418.69 119.383C425.999 159.475 432.963 199.1 436.125 236.137L436.728 243.195L443.747 244.147C533.11 256.276 599.13 286.505 667.022 345.047L672.657 349.905L678.408 345.186L734.04 299.521C720.256 320.641 706.608 342.162 693.891 360.853L690.242 366.214L694.26 371.306C764.965 460.905 797.121 559.237 790.248 653.772C784.79 728.846 754.677 802.089 698.841 867.196C727.385 807.742 738.838 746.687 733.92 686.633C727.319 606.039 691.297 527.966 628.838 458.565L623.951 453.135L617.696 456.909C600.735 467.144 583.634 477.144 566.4 486.911C574.468 469.437 582.248 451.647 589.893 434.594L592.966 427.739L586.698 423.598L585.322 422.688L585.293 422.67L585.265 422.651L583.65 421.607C566.963 410.873 549.881 401.504 531.665 393.221H531.666C506.552 381.799 487.781 374.247 473.263 371.037C458.485 367.769 446.466 368.644 436.409 376.099C427.177 382.942 421.053 394.436 414.975 407.729C410.601 417.294 406.144 428.073 400.456 440.731C391.399 417.414 379.358 390.417 371.25 371.028L368.519 364.496L361.547 365.733C330.397 371.262 308.452 376.541 287.227 384.448C266.048 392.338 245.891 402.732 218.284 418.155L211.264 422.077L214.503 429.438C222.075 446.641 229.767 463.792 237.578 480.889C221.441 470.107 204.894 459.396 189.54 449.172L183.614 445.226L178.494 450.174C116.547 510.035 80.9592 575.973 68.6719 646.775C57.0939 713.491 66.3159 783.876 92.7314 856.764C-20.7444 700.333 -23.7278 511.402 112.254 365.428L117.116 360.208L113.043 354.352C97.3134 331.733 79.114 301.907 61.6641 272.946C85.2445 293.897 109.231 314.738 132.151 335.016L137.812 340.024L143.642 335.212C212.766 278.14 274.987 256.627 362.605 243.314L368.582 242.406L369.905 236.509C378.587 197.835 385.779 158.057 393.062 118.625C397.343 95.4488 401.66 72.3818 406.338 49.6289Z" stroke="#430303" stroke-width="17.6861"/>
<path d="M389.559 587.905C465.057 582.896 530.186 640.348 534.634 715.88V715.881C539.085 791.416 481.152 856.113 405.586 860.003C330.811 863.849 266.935 806.653 262.533 731.908V731.907C258.163 657.747 313.968 593.87 387.812 588.032L389.559 587.905Z" stroke="#430303" stroke-width="17.6861"/>
</g>
</svg>
