<svg width="800" height="839" viewBox="0 0 800 839" fill="none" xmlns="http://www.w3.org/2000/svg">
<path d="M291.693 26.6641C391.1 -4.26457 498.72 5.37555 591.038 53.502C662.775 91.4623 723.006 152.967 757.486 226.759C754.405 221.418 751.203 216.179 747.888 211.06L746.568 209.036C692.912 126.462 608.577 68.6147 512.201 48.3496L512.188 48.3477L512.174 48.3447L509.989 47.8994C417.448 29.333 321.271 47.7318 242.107 99.2285L242.077 99.248L242.047 99.2686C165.164 150.17 111.77 229.667 93.7031 320.078C76.3535 406.317 94.2278 495.944 143.345 568.922C193.226 643.587 262.218 687.079 347.935 705.843C346.639 746.274 345.939 786.754 345.835 827.215C307.049 817.017 275.35 806.941 238.769 788.068L238.755 788.061L236.418 786.852C137.707 735.378 63.1017 647.199 28.7129 541.241C-5.01031 436.292 4.51275 322.218 55.1758 224.312C104.546 129.582 189.679 58.4388 291.694 26.665L291.693 26.6641Z" stroke="#430303" stroke-width="17.7267"/>
<path d="M388.216 163.561C452.646 150.358 519.669 163.868 573.954 201.014L573.988 201.037L574.021 201.06C630.679 239.064 669.305 298.568 680.918 365.81C685.233 391.318 687.871 413.062 691.33 434.723C694.707 455.87 698.702 475.686 705.436 494.581C717.053 527.183 736.55 556.272 773.492 585.517C699.418 589.996 640.676 612.241 593.126 650.494C550.137 685.079 516.817 732.333 489.48 790.123L493.455 542.626C581.413 494.987 608.406 414.209 590.24 343.814C571.86 272.591 507.438 212.998 416.744 210.437H416.726L416.708 210.436L415.483 210.41C363.673 209.479 313.55 228.943 275.942 264.668L275.928 264.683L275.912 264.697C236.692 302.31 214.184 354.072 213.418 408.395C212.764 439.17 218.969 470.506 231.569 498.964C220.409 480.392 212.051 460.348 206.592 437.18L206.08 434.958C193.715 377.692 204.245 317.881 235.389 268.266L236.129 267.096C270.857 213.571 325.661 176.239 388.197 163.564L388.206 163.562L388.216 163.561Z" stroke="#430303" stroke-width="17.7267"/>
</svg>
