<svg width="800" height="797" viewBox="0 0 800 797" fill="none" xmlns="http://www.w3.org/2000/svg">
<path d="M406.3 15.1113C418.34 43.1468 433.227 80.2873 445.694 117.982C459.289 159.087 469.768 200.143 470.905 230.658L470.952 232.104C471.303 244.778 463.266 260.956 450.989 277.604C442.442 289.194 432.418 300.249 423.394 309.423C421.761 299.225 420.263 289.014 418.737 278.714C416.507 263.655 414.212 248.428 411.342 233.046L407.857 214.374L397.567 230.34C396.089 232.634 394.886 235.623 393.872 238.644C392.817 241.786 391.802 245.475 390.83 249.469C388.885 257.461 387.023 267.063 385.333 276.729C383.334 288.161 381.532 299.978 380.104 309.506C353.555 280.059 340.507 258.956 336.697 236.521C332.38 211.098 339.648 182.55 356.918 135.992L356.917 135.991C372.157 94.9288 388.375 55.1434 406.3 15.1113Z" stroke="#430303" stroke-width="15.1071"/>
<path d="M376.671 482.806C377.077 484.29 377.489 485.931 377.899 487.719C379.733 495.699 381.44 505.904 382.967 516.564C386.046 538.061 388.224 560.042 389.39 569.108L404.232 569.884C410.497 543.392 415.663 511.469 421.065 483.294C437.454 499.622 448.301 515.083 455.031 530.091C462.988 547.833 465.361 565.322 463.948 583.486C462.526 601.779 457.26 620.824 449.796 641.609C442.292 662.507 432.856 684.42 423.104 709.03L423.041 709.189L422.985 709.352C416.88 727.062 404.438 754.753 394.569 777.568C382.912 751.117 369.208 716.482 357.403 681.432C343.045 638.797 331.763 596.32 330.05 567.308V567.307L330.009 566.52C329.271 549.992 336.054 533.803 346.708 518.154C355.356 505.451 366.177 493.64 376.671 482.806Z" stroke="#430303" stroke-width="15.1071"/>
<path d="M228.718 324.336C263.677 327.388 288.966 348.344 314.258 373.054C285.841 376.695 257.525 381.092 229.343 386.23L229.164 401.059C245.786 404.504 262.284 407.278 278.639 410.108C290.355 412.136 302.02 414.197 313.747 416.568C295.935 432.906 280.988 445.133 264.7 452.477C245.796 461 224.47 463.164 193.778 455.579L192.981 455.383L192.161 455.361C190.107 455.308 186.108 454.567 180.04 452.895C174.173 451.278 166.946 448.958 158.731 446.105C142.313 440.403 122.282 432.69 101.905 424.527C71.2296 412.239 39.9697 399.014 19.3779 390.254C85.2994 362.734 161.517 334.12 228.718 324.336Z" stroke="#430303" stroke-width="15.1071"/>
<path d="M568.537 329.871C580.011 329.757 596.465 332.898 616.062 338.408C635.86 343.974 658.216 351.763 680.734 360.341C717.469 374.334 754.311 390.307 780.752 401.898C725.969 424.444 670.158 445.453 613.29 460.164L612.688 460.319L612.121 460.571C585.993 472.155 561.749 469.013 539.229 458.197C520.365 449.137 502.878 434.747 487.011 419.196C513.419 414.298 546.491 410.04 571.969 405.987L572.453 391.161C546.465 385.269 515.061 380.274 487.302 375.589C512.156 351.659 532.958 337.245 568.537 329.871Z" stroke="#430303" stroke-width="15.1071"/>
<path d="M272.847 516.467C275.841 519.39 277.178 524.1 275.929 531.533C274.444 540.371 269.415 551.332 261.697 562.521C254.047 573.613 244.112 584.411 233.446 592.951C222.702 601.554 211.691 607.488 201.918 609.521L201.827 609.54L201.737 609.562C196.311 610.83 193.395 611.519 190.435 611.933C187.997 612.273 185.422 612.437 181.313 612.469C177.767 609.758 176.388 606.18 176.473 601.416C176.578 595.443 179.083 587.907 183.423 579.615C192.043 563.146 206.269 546.729 213.849 539.603L213.854 539.599C221.751 532.161 228.282 527.945 235.216 524.913C242.215 521.853 249.817 519.897 260.415 517.242L272.847 516.467Z" stroke="#430303" stroke-width="15.1071"/>
<path d="M183.131 172.191C214.865 176.082 236.96 186.458 252.164 202.606C267.438 218.829 276.607 241.769 280.73 272.394C251.32 270.483 228.54 259.349 212.365 242.034C196.197 224.727 186.131 200.705 183.131 172.191Z" stroke="#430303" stroke-width="15.1071"/>
<path d="M623.683 179.232C625.303 183.355 625.635 188.284 624.669 194.005C623.476 201.065 620.372 208.839 615.991 216.633C607.184 232.303 594.08 246.563 584.713 253.405C565.576 267.346 553.265 270.844 529.644 275.173L525.62 275.423C523.583 271.856 523.151 265.953 525.077 257.577C527.307 247.88 532.083 237.838 535.788 231.793C546.553 214.23 558.408 203.32 572.156 195.571C585.701 187.937 601.366 183.2 620.524 178.482L623.683 179.232Z" stroke="#430303" stroke-width="15.1071"/>
<path d="M520.704 520.135C554.086 524.294 575.159 534.235 589.332 550.013C603.497 565.781 611.717 588.381 617.145 620.096C585.994 614.381 564.18 605.274 549.115 590.387C533.91 575.36 524.602 553.458 520.704 520.135Z" stroke="#430303" stroke-width="15.1071"/>
</svg>
