<svg width="800" height="787" viewBox="0 0 800 787" fill="none" xmlns="http://www.w3.org/2000/svg">
<path d="M629.831 56.8418C607.544 107.313 597.777 156.513 604.307 202.987C613.502 268.437 654.747 326.712 734.578 374.47L734.604 374.484L734.628 374.499C749.432 383.211 764.662 391.158 780.263 398.314C652.348 457.947 515.742 566.427 439.433 682.951V682.952C419.64 713.182 407.586 737.619 393.486 766.896C333.063 620.371 225.965 516.464 94.1221 430.257L90.8828 428.146C73.9462 417.142 42.5123 398.187 19.1143 386.113C86.5415 355.39 140.51 319.787 172.22 271.24C205.809 219.816 213.565 155.279 188.739 70.0088L192.656 68.4062C228.662 125.223 254.3 175.815 259.076 225.396C263.941 275.897 247.227 326.58 194.186 382.8L187.072 390.34L196.162 395.323C273.949 437.969 333.744 481.524 390.959 549.408L396.736 556.264L402.902 549.755C462.324 487.028 524.522 438.964 603.044 402.121L612.433 397.715L605.8 389.743C566.948 343.048 539.069 302.505 544.807 240.362V240.361C548.423 201.173 566.587 156.357 591.301 114.099C603.073 93.9686 616.238 74.5798 629.831 56.8418Z" stroke="#430303" stroke-width="16.0242"/>
<path d="M402.47 228.176C402.852 230.4 403.175 232.232 403.416 233.465C410.042 267.416 416.396 295.765 427.966 321.723C438.391 345.11 452.927 366.305 475.27 388.121C447.224 403.453 421.572 422.823 399.139 445.595C372.221 418.567 357.222 406.115 325.321 386.714C373.811 340.697 390.502 286.866 402.47 228.176Z" stroke="#430303" stroke-width="16.0242"/>
</svg>
