<svg width="769" height="800" viewBox="0 0 769 800" fill="none" xmlns="http://www.w3.org/2000/svg">
<path d="M281.978 666.788C285.097 663.414 289.544 658.977 295 653.748C305.884 643.316 320.387 630.109 335.391 616.667C359.376 595.178 384.853 572.904 398.097 561.043C427.767 597.701 470.554 643.555 502.089 679.532C501.843 679.799 501.585 680.078 501.314 680.365C498.147 683.722 493.685 688.098 488.246 693.229C477.39 703.468 463.004 716.367 448.122 729.468C423.511 751.133 397.87 773.072 384.798 784.301C352.688 750.916 313.178 703.758 281.314 667.517C281.526 667.283 281.746 667.039 281.978 666.788Z" stroke="#430303" stroke-width="18.0725"/>
<path d="M434.284 255.76C469.487 227.986 526.199 189.77 559.915 165.37L567.429 159.931L561.797 152.562C534.282 116.561 506.441 77.1762 479.196 38.8754C517.208 60.6519 549.316 79.4151 578.191 102.558C615.37 132.357 647.162 169.465 677.839 229.622L677.855 229.653L677.871 229.684C725.77 321.863 734.373 429.492 701.72 528.109L701.696 528.184L701.672 528.258L700.819 530.959C671.163 623.556 611.141 686.602 530.127 728.367C597.938 661.043 630.527 570.097 624.063 484.756C616.455 384.318 554.74 292.081 434.284 255.76Z" stroke="#430303" stroke-width="18.0725"/>
<path d="M46.6837 372.949C53.8195 287.523 77.9827 216.375 119.39 159.36C149.651 117.693 189.342 83.2722 238.908 56.2944C183.005 113.414 149.312 187.115 143.016 261.789C134.987 357.02 171.563 453.774 263.046 519.068L263.46 519.362L263.904 519.609C283.167 530.321 295.753 536.624 308.902 541.233C316.95 544.054 325.104 546.199 334.961 548.379C293.38 577.534 246.435 615.009 208.109 644.314L201.206 649.591L206.211 656.695L290.537 776.387C239.422 751.347 195.855 720.462 156.034 676.283L155.988 676.232C81.6293 594.979 42.1671 485.616 46.6837 372.949Z" stroke="#430303" stroke-width="18.0725"/>
<path d="M250.367 126.446C250.963 125.802 251.614 125.109 252.323 124.371C255.873 120.68 260.608 116.07 266.212 110.802C277.407 100.278 291.801 87.3825 306.537 74.4209C330.606 53.2511 355.379 32.0831 368.369 20.9688C402.506 60.1726 437.682 99.235 472.167 137.998C471.843 138.365 471.496 138.752 471.126 139.158C467.989 142.601 463.58 147.038 458.198 152.218C447.458 162.554 433.243 175.466 418.501 188.592C394.325 210.117 368.38 232.521 355.109 244.18C323.301 211.409 281.934 162.137 250.367 126.446Z" stroke="#430303" stroke-width="18.0725"/>
</svg>
