<svg width="800" height="919" viewBox="0 0 800 919" fill="none" xmlns="http://www.w3.org/2000/svg">
<path d="M405.778 8.95996C406.486 9.55555 407.285 10.2447 408.177 11.0352C411.422 13.9123 415.461 17.7225 420.068 22.2129C429.274 31.1855 440.555 42.6903 451.926 54.4805C463.289 66.2621 474.706 78.2889 484.175 88.2949C493.608 98.2626 501.166 106.285 504.748 109.986V109.987L790.294 406.022C734.152 459.455 670.864 515.637 620.272 577.146C616.581 581.631 611.618 590.006 605.908 600.612C600.098 611.405 593.231 625.051 585.715 640.49C570.679 671.374 552.929 709.664 535.642 747.104C518.337 784.583 501.501 821.196 488.244 848.846C482.596 860.626 477.626 870.715 473.566 878.52C473.222 867.419 473.073 852.485 473.075 834.874C473.08 799.42 473.698 753.339 474.541 706.356C476.162 616.041 478.623 521.994 479.125 494.876C509.115 465.309 539.462 436.06 570.153 407.195L575.01 402.627L570.572 397.652C522.466 343.725 459.951 282.652 409.18 230.385L405.648 226.75L401.141 229.066C398.138 230.61 393.582 234.21 388.433 238.597C383.042 243.189 376.338 249.231 368.785 256.236C353.669 270.256 334.972 288.301 316.23 306.694C278.77 343.459 240.922 381.824 230.876 392.52L226.392 397.293L230.963 401.983L320.388 493.741C317.327 533.186 318.266 601.484 317.655 640.654C315.999 721.106 315 801.557 314.656 881.984C299.15 842.648 275.147 784.973 250.471 728.686C233.626 690.262 216.429 652.396 201.363 621.361C186.41 590.559 173.265 565.864 164.549 554.269L164.547 554.266L162.64 551.755C142.694 525.728 115.392 497.262 87.4043 469.556C60.2216 442.646 32.6942 416.737 9.73438 393.749L405.778 8.95996Z" stroke="#430303" stroke-width="13.6899"/>
</svg>
